<svg width="21" height="36" viewBox="0 0 21 36" fill="none" xmlns="http://www.w3.org/2000/svg">
<g opacity="0.4">
<path d="M10.5008 36C10.2205 36 9.96269 35.8665 9.80575 35.6384L0.148606 21.5967C-0.114822 21.2184 -0.0195397 20.701 0.367194 20.4395C0.748324 20.1836 1.27518 20.2782 1.533 20.6565L10.5008 33.6913L19.4685 20.6565C19.7263 20.2782 20.2532 20.1836 20.6343 20.4395C21.0154 20.701 21.1163 21.2184 20.8529 21.5967L11.1958 35.6384C11.0388 35.8665 10.7754 36 10.5008 36Z" fill="white"/>
<path d="M10.6239 33.936C10.1587 33.936 9.7832 33.5633 9.7832 33.1015V0.834492C9.7832 0.37274 10.1587 0 10.6239 0C11.0891 0 11.4647 0.37274 11.4647 0.834492V33.1015C11.4647 33.5633 11.0891 33.936 10.6239 33.936Z" fill="white"/>
</g>
</svg>
