<svg width="64" height="64" viewBox="0 0 64 64" fill="none" xmlns="http://www.w3.org/2000/svg">
<path fill-rule="evenodd" clip-rule="evenodd" d="M46 46.3C46 51.54 41.75 55.8 36.5 55.8H10.5C5.25 55.8 1 51.54 1 46.3V30.3C1 25.05 5.25 20.8 10.5 20.8H36.5C41.75 20.8 46 25.05 46 30.3V46.3ZM43 30.3C43 26.71 40.09 23.8 36.5 23.8H10.5C6.91 23.8 4 26.71 4 30.3V46.3C4 49.89 6.91 52.8 10.5 52.8H36.5C40.09 52.8 43 49.89 43 46.3V30.3Z" fill="white"/>
<path fill-rule="evenodd" clip-rule="evenodd" d="M60.1298 57.1798C59.4498 57.1798 58.6698 56.9898 58.0798 56.6298L43.8498 47.8498C43.3898 47.5599 43.0898 47.0599 43.1098 46.5199L43.5498 32.7799C43.5598 32.2799 43.8198 31.8299 44.2298 31.5599L57.9298 22.8C58.5398 22.41 59.4298 22.21 60.1298 22.21C62.1498 22.21 63.9998 23.88 63.9998 25.9299V53.4598C63.9998 55.5098 62.1498 57.1798 60.1298 57.1798ZM46.1098 45.7499L59.7698 54.0698C60.1998 54.3398 60.9998 54.0798 60.9998 53.4598V25.9299C60.9998 25.3099 60.1998 25.0399 59.7598 25.3199L46.6098 33.6699L46.1098 45.7499Z" fill="white"/>
<path fill-rule="evenodd" clip-rule="evenodd" d="M30.66 23.5199C26.75 23.5199 23.5601 20.3399 23.5601 16.4299C23.5601 12.5199 26.75 9.32996 30.66 9.32996C34.57 9.32996 37.75 12.5199 37.75 16.4299C37.75 20.3399 34.57 23.5199 30.66 23.5199ZM30.66 12.3299C28.4 12.3299 26.56 14.1699 26.56 16.4299C26.56 18.6899 28.4 20.5199 30.66 20.5199C32.92 20.5199 34.75 18.6899 34.75 16.4299C34.75 14.1699 32.92 12.3299 30.66 12.3299Z" fill="white"/>
<path fill-rule="evenodd" clip-rule="evenodd" d="M17.8801 23.52C13.0501 23.52 9.12012 19.59 9.12012 14.76C9.12012 9.93 13.0501 6 17.8801 6C22.71 6 26.64 9.93 26.64 14.76C26.64 19.59 22.71 23.52 17.8801 23.52ZM17.8801 9C14.7001 9 12.1201 11.59 12.1201 14.76C12.1201 17.94 14.7001 20.52 17.8801 20.52C21.06 20.52 23.64 17.94 23.64 14.76C23.64 11.59 21.06 9 17.8801 9Z" fill="white"/>
</svg>
