<svg width="42" height="42" viewBox="0 0 42 42" fill="none" xmlns="http://www.w3.org/2000/svg">
<path d="M33.0385 12.9231H9.96154C9.43013 12.9231 9 12.4929 9 11.9615C9 11.4301 9.43013 11 9.96154 11H33.0385C33.5699 11 34 11.4301 34 11.9615C34 12.4929 33.5699 12.9231 33.0385 12.9231Z" fill="#3677FD"/>
<path d="M33.0385 21.5769H9.96154C9.43013 21.5769 9 21.1468 9 20.6154C9 20.084 9.43013 19.6539 9.96154 19.6539H33.0385C33.5699 19.6539 34 20.084 34 20.6154C34 21.1468 33.5699 21.5769 33.0385 21.5769Z" fill="#3677FD"/>
<path d="M33.0385 30.2308H9.96154C9.43013 30.2308 9 29.8006 9 29.2692C9 28.7378 9.43013 28.3077 9.96154 28.3077H33.0385C33.5699 28.3077 34 28.7378 34 29.2692C34 29.8006 33.5699 30.2308 33.0385 30.2308Z" fill="#3677FD"/>
</svg>
