<svg width="64" height="64" viewBox="0 0 64 64" fill="none" xmlns="http://www.w3.org/2000/svg">
<path fill-rule="evenodd" clip-rule="evenodd" d="M54 54.5C54 59.74 49.75 64 44.5 64H20.5C15.25 64 11 59.74 11 54.5V10.5C11 5.25 15.25 1 20.5 1H44.5C49.75 1 54 5.25 54 10.5V54.5ZM51 10.5C51 6.91 48.09 4 44.5 4H20.5C16.91 4 14 6.91 14 10.5V54.5C14 58.09 16.91 61 20.5 61H44.5C48.09 61 51 58.09 51 54.5V10.5Z" fill="white"/>
<path fill-rule="evenodd" clip-rule="evenodd" d="M54 53.4999C54 54.3199 53.33 54.9999 52.5 54.9999H12.5C11.67 54.9999 11 54.3199 11 53.4999V10.5C11 9.67 11.67 9 12.5 9H52.5C53.33 9 54 9.67 54 10.5V53.4999ZM14 51.9999H51V12H14V51.9999Z" fill="white"/>
<path d="M34.9399 6.70996C34.9399 7.80996 34.0499 8.70996 32.9399 8.70996C31.8399 8.70996 30.9399 7.80996 30.9399 6.70996C30.9399 5.59996 31.8399 4.70996 32.9399 4.70996C34.0499 4.70996 34.9399 5.59996 34.9399 6.70996Z" fill="white"/>
<path d="M35.5701 59H30.5701C29.7501 59 29.0701 58.32 29.0701 57.4999C29.0701 56.6699 29.7501 55.9999 30.5701 55.9999H35.5701C36.4001 55.9999 37.0701 56.6699 37.0701 57.4999C37.0701 58.32 36.4001 59 35.5701 59Z" fill="white"/>
<path d="M35.5 40C34.67 40 34 39.11 34 38.28C34.01 30.75 29.44 29.98 28.92 29.92C28.1 29.84 27.49 29.06 27.57 28.25C27.64 27.43 28.35 26.78 29.17 26.85C29.25 26.86 37.0101 27.78 37.0001 38.3C37.0001 39.13 36.33 40 35.5 40Z" fill="white"/>
<path d="M42.36 39.0002C41.53 39.0002 40.86 38.2702 40.86 37.4402C40.88 24.1401 31.99 23.2701 31.9 23.2601C31.07 23.2001 30.45 22.4701 30.52 21.6401C30.58 20.81 31.32 20.16 32.13 20.25C32.24 20.26 43.88 21.4001 43.86 37.4502C43.86 38.2702 43.19 39.0002 42.36 39.0002Z" fill="white"/>
</svg>
