<svg width="50" height="50" viewBox="0 0 50 50" fill="none" xmlns="http://www.w3.org/2000/svg">
<rect width="50" height="50" rx="25" fill="url(#paint0_linear)"/>
<path d="M39.17 13.44C37.98 14.14 36.66 14.64 35.26 14.91C34.14 13.74 32.54 13 30.77 13C27.37 13 24.62 15.71 24.62 19.06C24.62 19.53 24.67 20 24.77 20.44C19.66 20.19 15.12 17.78 12.09 14.11C11.56 15 11.25 16.04 11.25 17.16C11.25 19.26 12.34 21.11 13.99 22.2C12.99 22.17 12.03 21.89 11.2 21.44V21.52C11.2 24.45 13.33 26.9 16.14 27.46C15.63 27.6 15.08 27.67 14.52 27.67C14.12 27.67 13.74 27.63 13.36 27.56C14.15 29.97 16.42 31.72 19.11 31.77C17 33.39 14.35 34.36 11.47 34.36C10.97 34.36 10.48 34.33 10 34.28C12.72 36 15.96 37 19.43 37C30.76 37 36.95 27.77 36.95 19.76C36.95 19.5 36.94 19.24 36.93 18.98C38.13 18.12 39.18 17.06 40 15.84C38.9 16.32 37.71 16.65 36.47 16.79C37.74 16.04 38.71 14.86 39.17 13.44Z" fill="white"/>
<defs>
<linearGradient id="paint0_linear" x1="-0.355883" y1="46.2726" x2="74.6441" y2="-14.4608" gradientUnits="userSpaceOnUse">
<stop stop-color="#3595FF"/>
<stop offset="1" stop-color="#3564FC"/>
</linearGradient>
</defs>
</svg>
