<svg width="50" height="50" viewBox="0 0 50 50" fill="none" xmlns="http://www.w3.org/2000/svg">
<rect width="50" height="50" rx="25" fill="#E1E1E1"/>
<path fill-rule="evenodd" clip-rule="evenodd" d="M10 35V15H19.44C22.39 15 24.71 16.71 24.71 20.22C24.71 22.55 23.76 23.79 21.87 23.94C24.36 23.94 25.53 25.56 25.35 28.8C25.35 32.79 23.38 34.85 19.44 35H10ZM14.03 22.85H19.11C19.98 22.85 20.76 22.55 20.76 20.52C20.76 19.16 20.32 18.48 19.44 18.48H14.03V22.85ZM14.03 31.1H18.82C18.8475 31.1 18.8778 31.1009 18.9106 31.1019C18.9852 31.1042 19.0728 31.1069 19.17 31.1C19.94 31.09 21.4 30.85 21.4 28.56C21.4 26.75 20.75 25.85 19.44 25.87H14.03V31.1ZM39.7102 28.48H30.0702C30.0702 30.91 31.1602 32.05 33.3502 31.89C35.4102 31.89 36.4002 31.19 36.3302 29.79H39.6002C39.6002 33.51 37.4802 35.25 33.2402 34.99C28.1402 34.99 25.7602 32.5 26.0902 27.51C26.0802 22.49 28.4702 19.98 33.2402 19.98C38.2602 19.98 40.4102 22.82 39.7102 28.48ZM36.1402 25.87C36.1702 23.86 35.2302 22.85 33.3102 22.85C31.3902 22.85 30.3002 23.86 30.0302 25.87H36.1402ZM29.23 16.15H36.91V18H29.23V16.15Z" fill="white"/>
</svg>
