<svg width="50" height="50" viewBox="0 0 50 50" fill="none" xmlns="http://www.w3.org/2000/svg">
<rect width="50" height="50" rx="25" fill="url(#paint0_linear)"/>
<path d="M24.81 12C28.05 12 31.01 13.21 33.27 15.2C33.24 15.25 31.41 18.02 26.58 19.84C24.39 15.81 21.98 12.62 21.79 12.36C22.76 12.13 23.77 12 24.81 12ZM21.74 12.37C21.73 12.38 21.72 12.38 21.7 12.38C21.71 12.38 21.73 12.38 21.74 12.37ZM19.34 13.22C19.51 13.45 21.88 16.66 24.1 20.6C17.95 22.24 12.61 22.18 12.27 22.17C13.11 18.2 15.77 14.91 19.34 13.22ZM15.28 33.37C13.24 31.1 12 28.1 12 24.81C12 24.67 12 24.54 12.01 24.4C12.24 24.41 18.57 24.55 25.16 22.58C25.53 23.3 25.88 24.03 26.2 24.76C26.03 24.8 25.86 24.85 25.7 24.91C21.09 26.4 17.61 29.22 15.28 33.36C15.28 33.37 15.28 33.37 15.28 33.37ZM24.81 37.62C21.84 37.62 19.11 36.6 16.94 34.91C16.86 34.85 16.76 34.78 16.65 34.68C16.74 34.76 16.84 34.83 16.94 34.91C16.96 34.85 19.43 29.54 26.99 26.91C27.02 26.9 27.05 26.89 27.07 26.88C28.88 31.56 29.62 35.49 29.81 36.61C28.27 37.26 26.58 37.62 24.81 37.62ZM31.97 35.43C31.84 34.66 31.15 30.9 29.47 26.28C33.61 25.62 37.19 26.76 37.46 26.84C36.89 30.41 34.84 33.49 31.97 35.43ZM28.69 24.26C28.6 24.04 28.51 23.82 28.42 23.6C28.15 22.97 27.86 22.35 27.57 21.74C32.62 19.68 34.68 16.71 34.7 16.67C36.5 18.85 37.59 21.64 37.61 24.68C37.43 24.64 33.09 23.71 28.69 24.26Z" fill="white"/>
<defs>
<linearGradient id="paint0_linear" x1="-0.355883" y1="46.2726" x2="74.6441" y2="-14.4608" gradientUnits="userSpaceOnUse">
<stop stop-color="#3595FF"/>
<stop offset="1" stop-color="#3564FC"/>
</linearGradient>
</defs>
</svg>
