<svg width="64" height="64" viewBox="0 0 64 64" fill="none" xmlns="http://www.w3.org/2000/svg">
<path fill-rule="evenodd" clip-rule="evenodd" d="M63.9299 42.4999C63.9299 47.7399 59.6799 51.9999 54.4299 51.9999H11.4299C6.17993 51.9999 1.92993 47.7399 1.92993 42.4999V16.5C1.92993 11.25 6.17993 7 11.4299 7H54.4299C59.6799 7 63.9299 11.25 63.9299 16.5V42.4999ZM60.9299 16.5C60.9299 12.91 58.0199 9.99999 54.4299 9.99999H11.4299C7.83993 9.99999 4.92993 12.91 4.92993 16.5V42.4999C4.92993 46.0899 7.83993 48.9999 11.4299 48.9999H54.4299C58.0199 48.9999 60.9299 46.0899 60.9299 42.4999V16.5Z" fill="white"/>
<path fill-rule="evenodd" clip-rule="evenodd" d="M53.2002 51.9999H13.0502C7.18016 51.9999 2.41016 47.2899 2.41016 41.5C2.41016 40.67 3.08016 40 3.91016 40H62.3402C63.1702 40 63.8402 40.67 63.8402 41.5C63.8402 47.2899 59.0602 51.9999 53.2002 51.9999ZM5.56016 43C6.27016 46.4199 9.36016 48.9999 13.0502 48.9999H53.2002C56.8902 48.9999 59.9702 46.4199 60.6802 43H5.56016Z" fill="white"/>
<path d="M62.5 58H2.5C1.68 58 1 57.32 1 56.4999C1 55.6699 1.68 54.9999 2.5 54.9999H62.5C63.33 54.9999 64 55.6699 64 56.4999C64 57.32 63.33 58 62.5 58Z" fill="white"/>
<path d="M36.42 37.2899C36.04 37.2899 35.65 37.1399 35.36 36.8499C34.77 36.2599 34.77 35.3099 35.36 34.7299L43.64 26.4499C44.23 25.8599 45.18 25.8599 45.76 26.4499C46.35 27.0299 46.35 27.9799 45.76 28.5699L37.48 36.8499C37.19 37.1399 36.8 37.2899 36.42 37.2899Z" fill="white"/>
<path d="M23.5899 38.6901C23.2099 38.6901 22.8199 38.5501 22.5299 38.2501C21.9399 37.6701 21.9399 36.7201 22.5299 36.13L40.47 18.1899C41.06 17.5999 42.01 17.5999 42.59 18.1899C43.18 18.7699 43.18 19.7199 42.59 20.31L24.6499 38.2501C24.3599 38.5501 23.9699 38.6901 23.5899 38.6901Z" fill="white"/>
</svg>
