<svg width="42" height="42" viewBox="0 0 42 42" fill="none" xmlns="http://www.w3.org/2000/svg">
<path d="M31.9093 33C31.63 33 31.3507 32.8938 31.1376 32.6807L9.3191 10.8624C8.89363 10.4362 8.89363 9.74528 9.3191 9.31909C9.74528 8.89364 10.4362 8.89364 10.8624 9.31909L32.6809 31.1374C33.1064 31.5636 33.1064 32.2545 32.6809 32.6807C32.4678 32.8938 32.1885 33 31.9093 33Z" fill="white"/>
<path d="M10.0907 33C9.81147 33 9.53219 32.8938 9.3191 32.6807C8.89363 32.2545 8.89363 31.5636 9.3191 31.1374L31.1376 9.31909C31.5638 8.89364 32.2547 8.89364 32.6809 9.31909C33.1064 9.74528 33.1064 10.4362 32.6809 10.8624L10.8624 32.6807C10.6493 32.8938 10.37 33 10.0907 33Z" fill="white"/>
</svg>
