<svg width="64" height="64" viewBox="0 0 64 64" fill="none" xmlns="http://www.w3.org/2000/svg">
<path fill-rule="evenodd" clip-rule="evenodd" d="M60 50.5C60 55.75 55.75 60 50.5 60H13.5C8.25 60 4 55.75 4 50.5V13.5C4 8.26 8.25 4 13.5 4H50.5C55.75 4 60 8.26 60 13.5V50.5ZM57 13.5C57 9.91 54.09 7 50.5 7H13.5C9.91 7 7 9.91 7 13.5V50.5C7 54.09 9.91 57 13.5 57H50.5C54.09 57 57 54.09 57 50.5V13.5Z" fill="white"/>
<path d="M45.5 59.5C44.67 59.5 44 58.83 44 58V6C44 5.18 44.67 4.5 45.5 4.5C46.33 4.5 46.9999 5.18 46.9999 6V58C46.9999 58.83 46.33 59.5 45.5 59.5Z" fill="white"/>
<path d="M32.5 59.5C31.67 59.5 31 58.83 31 58V6C31 5.18 31.67 4.5 32.5 4.5C33.33 4.5 34 5.18 34 6V58C34 58.83 33.33 59.5 32.5 59.5Z" fill="white"/>
<path d="M19.5 59.5C18.67 59.5 18 58.83 18 58V6C18 5.18 18.67 4.5 19.5 4.5C20.33 4.5 21 5.18 21 6V58C21 58.83 20.33 59.5 19.5 59.5Z" fill="white"/>
<path d="M57.5701 34H32.5701C31.7501 34 31.0701 33.33 31.0701 32.5C31.0701 31.68 31.7501 31 32.5701 31H57.5701C58.4001 31 59.0701 31.68 59.0701 32.5C59.0701 33.33 58.4001 34 57.5701 34Z" fill="white"/>
</svg>
