<svg width="64" height="64" viewBox="0 0 64 64" fill="none" xmlns="http://www.w3.org/2000/svg">
<path fill-rule="evenodd" clip-rule="evenodd" d="M44.864 62H20.134C14.684 62 9.95398 58.55 8.34398 53.43L1.57398 31.8799C0.393979 28.1199 1.05398 24.1599 3.36398 21.0199C5.70398 17.8299 9.34398 15.9999 13.354 15.9999H51.644C55.634 15.9999 59.274 17.8299 61.624 21.0199C63.944 24.1899 64.604 28.1599 63.424 31.9299L56.644 53.48C55.054 58.58 50.324 62 44.864 62ZM13.354 18.9999C10.314 18.9999 7.55398 20.3799 5.78398 22.7899C4.03398 25.1599 3.54398 28.1499 4.43398 30.9899L11.214 52.53C12.424 56.4 16.004 59 20.134 59H44.864C49.004 59 52.584 56.42 53.784 52.58L60.564 31.0299C61.454 28.1899 60.954 25.1899 59.204 22.7999C57.424 20.3799 54.674 18.9999 51.644 18.9999H13.354Z" fill="white"/>
<path d="M48.054 18.5C47.224 18.5 46.554 17.83 46.554 17V11.5C46.554 7.92 43.214 5 39.624 5H24.624C21.044 5 18.554 7.92 18.554 11.5V17C18.554 17.83 17.884 18.5 17.054 18.5C16.224 18.5 15.554 17.83 15.554 17V11.5C15.554 6.26 19.384 2 24.624 2H39.624C44.864 2 49.554 6.26 49.554 11.5V17C49.554 17.83 48.884 18.5 48.054 18.5Z" fill="white"/>
</svg>
