<svg width="64" height="64" viewBox="0 0 64 64" fill="none" xmlns="http://www.w3.org/2000/svg">
<path fill-rule="evenodd" clip-rule="evenodd" d="M59 54.5C59 59.75 54.75 64 49.5 64H13.5C8.25 64 4 59.75 4 54.5V10.5C4 5.25 8.25 1 13.5 1H49.5C54.75 1 59 5.25 59 10.5V54.5ZM56 10.5C56 6.91 53.09 4 49.5 4H13.5C9.91 4 7 6.91 7 10.5V54.5C7 58.09 9.91 61 13.5 61H49.5C53.09 61 56 58.09 56 54.5V10.5Z" fill="white"/>
<path d="M8.57007 21H6.57007C5.75007 21 5.07007 20.33 5.07007 19.4999C5.07007 18.6699 5.75007 17.9999 6.57007 17.9999H8.57007C9.40007 17.9999 10.0701 18.6699 10.0701 19.4999C10.0701 20.33 9.40007 21 8.57007 21Z" fill="white"/>
<path d="M55.5701 21H8.57007C7.74007 21 7.07007 20.33 7.07007 19.4999C7.07007 18.6699 7.74007 17.9999 8.57007 17.9999H55.5701C56.4001 17.9999 57.0701 18.6699 57.0701 19.4999C57.0701 20.33 56.4001 21 55.5701 21Z" fill="white"/>
<path d="M57.5701 21H55.5701C54.7501 21 54.0701 20.33 54.0701 19.4999C54.0701 18.6699 54.7501 17.9999 55.5701 17.9999H57.5701C58.4001 17.9999 59.0701 18.6699 59.0701 19.4999C59.0701 20.33 58.4001 21 57.5701 21Z" fill="white"/>
<path d="M20.7999 12.15C20.7999 13.56 19.6599 14.7 18.2499 14.7C16.8399 14.7 15.6899 13.56 15.6899 12.15C15.6899 10.74 16.8399 9.58997 18.2499 9.58997C19.6599 9.58997 20.7999 10.74 20.7999 12.15Z" fill="white"/>
<path d="M30.0001 12.15C30.0001 13.56 28.8601 14.7 27.4501 14.7C26.0401 14.7 24.8901 13.56 24.8901 12.15C24.8901 10.74 26.0401 9.58997 27.4501 9.58997C28.8601 9.58997 30.0001 10.74 30.0001 12.15Z" fill="white"/>
<path d="M38.1802 12.15C38.1802 13.56 37.0402 14.7 35.6301 14.7C34.2101 14.7 33.0701 13.56 33.0701 12.15C33.0701 10.74 34.2101 9.58997 35.6301 9.58997C37.0402 9.58997 38.1802 10.74 38.1802 12.15Z" fill="white"/>
<path d="M41.4699 46.4199C40.9899 46.4199 40.5199 46.1999 40.2299 45.7699C39.7599 45.0799 39.9399 44.1499 40.6299 43.6799L48.28 38.48L40.7899 34.65C40.0499 34.28 39.7599 33.37 40.1299 32.64C40.5099 31.9 41.4199 31.61 42.1499 31.98L49.89 35.94C50.78 36.39 51.35 37.25 51.43 38.23C51.51 39.22 51.08 40.16 50.28 40.7499L42.3099 46.1599C42.0599 46.3399 41.7599 46.4199 41.4699 46.4199Z" fill="white"/>
<path d="M24.2799 50.4199C23.99 50.4199 23.7 50.3399 23.44 50.1599L15.51 44.7799C14.67 44.16 14.24 43.22 14.32 42.23C14.4 41.25 14.98 40.39 15.86 39.94L23.6 35.98C24.3399 35.61 25.2399 35.9 25.6199 36.64C25.9899 37.37 25.6999 38.28 24.9599 38.65L17.47 42.48L25.1199 47.6799C25.8099 48.1499 25.9899 49.0799 25.5199 49.7699C25.2299 50.1999 24.7599 50.4199 24.2799 50.4199Z" fill="white"/>
<path d="M30.0001 53.3101C29.8601 53.3101 29.7101 53.2901 29.5601 53.2501C28.7701 53.0001 28.3201 52.1601 28.5701 51.3701L35.1501 30.26C35.4001 29.47 36.2401 29.02 37.0301 29.27C37.8201 29.52 38.2601 30.36 38.0101 31.15L31.4401 52.2601C31.2401 52.9001 30.6401 53.3101 30.0001 53.3101Z" fill="white"/>
</svg>
